<svg xmlns="http://www.w3.org/2000/svg" viewBox="0 0 297.64 297.64"><g id="logo" data-name="logo"><circle cx="148.82" cy="148.82" r="148.82" fill="#1e2055"/><path fill="#65ad8e" d="M128.36 99.99v47.63h7.99V96.91h-7.99v3.08z"/><path fill="#65ad8e" d="M333.28 527.25h-17.19v-20.63h-38.18v20.63H269c-32.41 0-52.32 4.51-52.32 4.51v7.74S245.59 535 269 535h34.49v-7.74H285.9v-5.54a12 12 0 0 1 22.7 0v24.88h-6c-10.85 0-10 9.35-10 9.35v25.64c0 2.86.31 9.13 10 9.13h7.09c4.45 0 6.43-2.28 6.43-7.43V535h17.19c17.92 0 43.32 4.51 43.32 4.51v-7.74a202.38 202.38 0 0 0-43.35-4.52zm-24.68 55.5h-4.51a4.3 4.3 0 0 1-3-1.13 3.48 3.48 0 0 1-1.23-2.65v-20.66a5 5 0 0 1 1.25-3.37 4.34 4.34 0 0 1 3-1.11h4.51z" transform="translate(-149.55 -443.11)"/><path fill="#fff" d="M207.25 590.72h-5.87v-33h-.09l-5.63 33h-6.17l-5.51-33h-.08v33H178v-43.93h9.2l5.46 31.67h.08l5.38-31.67h9.11zM241 569.05c0 4.11-.52 9.36-1.57 12.06a15.35 15.35 0 0 1-3.93 6.11 13.16 13.16 0 0 1-4.71 2.79 14.54 14.54 0 0 1-4.28.71 14.69 14.69 0 0 1-4.29-.72 13 13 0 0 1-4.71-2.8 15.24 15.24 0 0 1-3.93-6.11c-1.05-2.68-1.57-7.93-1.57-12s.52-9.95 1.57-12.63a15.33 15.33 0 0 1 3.91-6.11 13 13 0 0 1 4.69-2.8 13.38 13.38 0 0 1 8.66 0 12.94 12.94 0 0 1 4.67 2.79 15.23 15.23 0 0 1 3.92 6.1c1 2.66 1.57 8.48 1.57 12.61zm-6.3 0c0-2.51.93-15.6-8.19-15.6s-8.19 13.09-8.19 15.6 0 15 8.19 15 8.14-12.51 8.14-15zM271.55 576.81a23 23 0 0 1-2.31 7.31 12.83 12.83 0 0 1-4.39 4.87 11.67 11.67 0 0 1-6.41 1.73 11.94 11.94 0 0 1-7.18-2.26 14.53 14.53 0 0 1-4.86-6.74c-1.17-3-1.75-10.83-1.75-15a29.28 29.28 0 0 1 1.81-10.88 14.92 14.92 0 0 1 5-6.76 11.86 11.86 0 0 1 7.09-2.26 12.52 12.52 0 0 1 5.67 1.23 11.71 11.71 0 0 1 4 3.22 15 15 0 0 1 2.38 4.31 16.78 16.78 0 0 1 .95 4.58h-6.31a12.45 12.45 0 0 0-1.94-4.62q-1.33-1.89-4.74-1.89-2.91 0-5.19 3t-2.29 10.16c0 2.37.27 8.77.79 10.72a10.44 10.44 0 0 0 2.46 4.65 5.62 5.62 0 0 0 4.23 1.73 6.05 6.05 0 0 0 3.13-.8 6.43 6.43 0 0 0 2.28-2.42 11.39 11.39 0 0 0 1.27-3.86zM349.15 577.5a25.13 25.13 0 0 1-.68 5.93 11.9 11.9 0 0 1-1.92 3.7 10.4 10.4 0 0 1-2 2 7.68 7.68 0 0 1-2.78 1.16 22.06 22.06 0 0 1-4.74.41h-12.79v-43.91h14.67a7.24 7.24 0 0 1 4.94 1.58 9.24 9.24 0 0 1 3.24 3.9 13.71 13.71 0 0 1 1.1 4.69c0 2.48.17 5.49-1.06 7.52a8.59 8.59 0 0 1-2.63 2.73c3.86 2.03 4.65 5.41 4.65 10.29zm-6.72-18.5c0-3.29-1.87-5.39-3.4-5.39h-8.74v10.8H339c1.35.03 3.43-2.1 3.43-5.41zm.43 18.9c0-1.62 0-6.79-5.39-6.79h-7.18v12.73H338c3.25.03 4.86-2.05 4.86-5.91zM377.73 578a18.44 18.44 0 0 1-1.13 6.74 9.6 9.6 0 0 1-3.24 4.43 8.25 8.25 0 0 1-5 1.54h-13.78v-43.92h6.3v16.44h7.23a7.75 7.75 0 0 1 5.84 2.22 11.79 11.79 0 0 1 3 5.13 37.43 37.43 0 0 1 .78 7.42zm-6.3-1.42a10.15 10.15 0 0 0-1.08-4.62 5.16 5.16 0 0 0-4.36-1.88h-5.11v13.78H366a6.21 6.21 0 0 0 4.36-1.32c.87-.85 1.07-4.02 1.07-5.95zm16.42 14.13h-6.3v-43.92h6.3zM416.79 590.72h-22.55v-43.93h22.55v7h-16.37v10.48H415v7h-14.58v12.41h16.37zM187.27 626a10.85 10.85 0 0 1-2.47 6 8.91 8.91 0 0 1-3.88 2.62 12.84 12.84 0 0 1-3.54.57 10.56 10.56 0 0 1-3.81-.7 9 9 0 0 1-3.25-2.2 10.44 10.44 0 0 1-2.28-3.88 17 17 0 0 1-.83-5.62 16 16 0 0 1 .72-4.93A11.16 11.16 0 0 1 170 614a9.36 9.36 0 0 1 3.34-2.49 10.7 10.7 0 0 1 4.4-.87 10.36 10.36 0 0 1 4.8 1 8.19 8.19 0 0 1 3.15 2.8 8.92 8.92 0 0 1 1.35 3.78h-3a5.3 5.3 0 0 0-2.38-3.79 7.71 7.71 0 0 0-4-1.05 6.91 6.91 0 0 0-3.78 1.06 7.14 7.14 0 0 0-2.65 3.14 11.88 11.88 0 0 0-1 5 12.57 12.57 0 0 0 1.76 7.08q1.77 2.63 5.74 2.63a6.78 6.78 0 0 0 2.49-.52 5.8 5.8 0 0 0 2.38-2 9.14 9.14 0 0 0 1.58-3.92zM207.37 614h-7.66v20.52h-3.05V614H189v-2.79h18.37zM227.44 617.82a7.49 7.49 0 0 1-1.66 4.85 6.1 6.1 0 0 1-5.05 2.06h-7.46v9.83h-3.07v-23.3h10.53a7.29 7.29 0 0 1 3.56.84 5.73 5.73 0 0 1 2.34 2.34 7 7 0 0 1 .81 3.38zm-3.15 0q0-3.9-4.47-3.9h-6.55V622h6.42c3.06 0 4.6-1.36 4.6-4.15zM252 622.88a16.39 16.39 0 0 1-.55 4.18 12.5 12.5 0 0 1-1.83 4 9.54 9.54 0 0 1-3.41 3 10.81 10.81 0 0 1-5.14 1.14 10.66 10.66 0 0 1-5.14-1.15 9.52 9.52 0 0 1-3.41-3 12.5 12.5 0 0 1-1.83-4 16.2 16.2 0 0 1 0-8.37 12.65 12.65 0 0 1 1.82-4 9.49 9.49 0 0 1 3.42-3 12.21 12.21 0 0 1 10.28 0 9.54 9.54 0 0 1 3.41 3 12.5 12.5 0 0 1 1.83 4 16.47 16.47 0 0 1 .55 4.2zm-3.06 0A12.07 12.07 0 0 0 248 618a7.61 7.61 0 0 0-2.74-3.36 7.79 7.79 0 0 0-8.37 0 7.68 7.68 0 0 0-2.74 3.36 13.14 13.14 0 0 0 0 9.81 7.76 7.76 0 0 0 2.75 3.36 7.81 7.81 0 0 0 8.35 0 7.76 7.76 0 0 0 2.75-3.36 12.15 12.15 0 0 0 1-4.93zM273.69 634.53h-3V615.7h-.06l-11.5 18.83h-3.43v-23.31h3v18.83h.07l11.3-18.83h3.63zM294.88 614h-7.65v20.52h-3.05V614h-7.66v-2.79h18.36zM314.42 634.53h-16.7v-23.31h16.48V614h-13.42v7.14h12.38V624h-12.38v7.79h13.64zM335 634.53h-3V614h-9.2v14.22a8.73 8.73 0 0 1-.85 4.22 4.38 4.38 0 0 1-2.18 2 8 8 0 0 1-3 .52v-2.82a2.73 2.73 0 0 0 2.48-1 5.48 5.48 0 0 0 .64-2.92v-17H335zM357 628a7 7 0 0 1-.81 3.37 5.73 5.73 0 0 1-2.34 2.34 7.3 7.3 0 0 1-3.57.84h-10.54v-23.33h3.06v9.84h7.46a6.77 6.77 0 0 1 3.83 1 5.86 5.86 0 0 1 2.2 2.59A8.21 8.21 0 0 1 357 628zm-3.16 0q0-4.2-4.59-4.2h-6.45v8.09h6.56q4.45-.05 4.46-3.89zM378.68 634.53h-3.05v-10.87h-11.82v10.87h-3.06v-23.31h3.06v9.65h11.82v-9.65h3.05zM400.38 628a7 7 0 0 1-.81 3.37 5.77 5.77 0 0 1-2.33 2.34 7.3 7.3 0 0 1-3.57.84H383.5v-23.33h3.06v9.84h7.11a6.8 6.8 0 0 1 3.83 1 5.92 5.92 0 0 1 2.2 2.59 8.37 8.37 0 0 1 .68 3.35zm-3.15 0q0-4.2-4.6-4.2h-6.07v8.09h6.2q4.47-.05 4.47-3.89zm8.88 6.58h-3.05v-23.36h3.05zM427.6 634.53h-16.69v-23.31h16.48V614H414v7.14h12.37V624H414v7.79h13.6zM208.66 651.85H201v20.51h-3v-20.51h-7.7v-2.79h18.36zM228.2 672.36h-16.7v-23.3H228v2.79h-13.44V659h12.38v2.79h-12.38v7.79h13.64zM250.53 672.36h-3.77l-6.18-9.57-6.18 9.57h-3.65l8-11.94-7.59-11.36H235l5.7 8.92 5.8-8.92h3.65l-7.65 11.36zM271.45 672.36h-3.05v-10.87h-11.81v10.87h-3.07v-23.3h3.07v9.64h11.81v-9.64h3.05zM297.06 660.71a16.33 16.33 0 0 1-.55 4.18 12.5 12.5 0 0 1-1.83 4 9.54 9.54 0 0 1-3.41 3 12.16 12.16 0 0 1-10.28 0 9.55 9.55 0 0 1-3.41-3 12.5 12.5 0 0 1-1.83-4 16.16 16.16 0 0 1 0-8.36 12.7 12.7 0 0 1 1.82-4 9.58 9.58 0 0 1 3.42-3 10.81 10.81 0 0 1 5.14-1.14 11 11 0 0 1 5.14 1.13 9.54 9.54 0 0 1 3.41 3 12.66 12.66 0 0 1 1.83 4 16.33 16.33 0 0 1 .55 4.19zm-3.06 0a12.1 12.1 0 0 0-.95-4.9 7.74 7.74 0 0 0-2.74-3.36 7.84 7.84 0 0 0-8.37 0 7.74 7.74 0 0 0-2.74 3.36 13.14 13.14 0 0 0 0 9.81A7.65 7.65 0 0 0 282 669a7.81 7.81 0 0 0 8.35 0 7.65 7.65 0 0 0 2.75-3.36 12.11 12.11 0 0 0 .9-4.93zM317.07 672.36H314v-20.51h-9.17v14.21a8.59 8.59 0 0 1-.85 4.22 4.38 4.38 0 0 1-2.17 2 8.28 8.28 0 0 1-3 .51V670a2.71 2.71 0 0 0 2.48-1 5.48 5.48 0 0 0 .64-2.92v-17h15.13zM342.58 660.71a16.33 16.33 0 0 1-.55 4.18 12.5 12.5 0 0 1-1.83 4 9.54 9.54 0 0 1-3.41 3 12.16 12.16 0 0 1-10.28 0 9.55 9.55 0 0 1-3.41-3 12.5 12.5 0 0 1-1.83-4 16.16 16.16 0 0 1 0-8.36 12.5 12.5 0 0 1 1.83-4 9.46 9.46 0 0 1 3.41-3 10.81 10.81 0 0 1 5.14-1.14 10.93 10.93 0 0 1 5.14 1.13 9.37 9.37 0 0 1 3.41 3 12.66 12.66 0 0 1 1.83 4 16.33 16.33 0 0 1 .55 4.19zm-3.06 0a11.93 11.93 0 0 0-.95-4.9 7.72 7.72 0 0 0-2.73-3.36 7.86 7.86 0 0 0-8.38 0 7.81 7.81 0 0 0-2.74 3.36 12.1 12.1 0 0 0-1 4.9 12 12 0 0 0 1 4.91 7.63 7.63 0 0 0 2.74 3.36 7.81 7.81 0 0 0 8.35 0 7.65 7.65 0 0 0 2.75-3.36 12 12 0 0 0 .96-4.91zM361.14 651.85h-11.78v20.48h-3.06v-23.27h14.84zM381.77 672.36h-3v-18.83h-.06l-11.5 18.83h-3.44v-23.3h3v18.83h.07l11.31-18.83h3.62zM404.51 672.36h-3v-18.83h-.06L390 672.36h-3.44v-23.3h3v18.83h.07l11.31-18.83h3.62z" transform="translate(-149.55 -443.11)"/></g></svg>